<?xml version="1.0" encoding="UTF-8" standalone="no"?>
<svg
   xmlns:dc="http://purl.org/dc/elements/1.1/"
   xmlns:cc="http://creativecommons.org/ns#"
   xmlns:rdf="http://www.w3.org/1999/02/22-rdf-syntax-ns#"
   xmlns:svg="http://www.w3.org/2000/svg"
   xmlns="http://www.w3.org/2000/svg"
   xmlns:sodipodi="http://sodipodi.sourceforge.net/DTD/sodipodi-0.dtd"
   xmlns:inkscape="http://www.inkscape.org/namespaces/inkscape"
   height="64"
   id="Capa_1"
   version="1.1"
   viewBox="0 0 64 64"
   width="64"
   xml:space="preserve"
   sodipodi:docname="help.svg"
   inkscape:version="0.92.1 r15371"><metadata
     id="metadata39"><rdf:RDF><cc:Work
         rdf:about=""><dc:format>image/svg+xml</dc:format><dc:type
           rdf:resource="http://purl.org/dc/dcmitype/StillImage" /><dc:title></dc:title></cc:Work></rdf:RDF></metadata><defs
     id="defs37" /><sodipodi:namedview
     pagecolor="#ffffff"
     bordercolor="#666666"
     borderopacity="1"
     objecttolerance="10"
     gridtolerance="10"
     guidetolerance="10"
     inkscape:pageopacity="0"
     inkscape:pageshadow="2"
     inkscape:window-width="1920"
     inkscape:window-height="1017"
     id="namedview35"
     showgrid="false"
     inkscape:zoom="5.1304348"
     inkscape:cx="27.359523"
     inkscape:cy="31.143323"
     inkscape:window-x="-8"
     inkscape:window-y="-8"
     inkscape:window-maximized="1"
     inkscape:current-layer="Capa_1" /><path
     d="M 31.677558,7.826197 C 18.327353,8.0048885 7.6505534,18.97392 7.8281847,32.32533 8.0068671,45.670959 18.974289,56.351456 32.323968,56.173816 45.671545,55.994073 56.350449,45.025041 56.172816,31.674683 55.994133,18.328003 45.026186,7.648031 31.677558,7.826197 Z m -0.07147,38.889582 -0.133486,-0.0021 c -2.055899,-0.06097 -3.505329,-1.575638 -3.446994,-3.601159 0.05728,-1.990834 1.541924,-3.436133 3.530029,-3.436133 l 0.119296,0.0021 c 2.113183,0.06254 3.546321,1.561974 3.486935,3.645833 -0.05886,1.996615 -1.520377,3.39146 -3.55578,3.39146 z m 8.647701,-17.164372 c -0.483494,0.686911 -1.546654,1.5399 -2.886247,2.583669 l -1.475181,1.018542 c -0.809852,0.629625 -1.298601,1.221934 -1.482013,1.804784 -0.144523,0.458817 -0.21547,0.580222 -0.228083,1.513622 l -0.0021,0.237029 h -5.632701 l 0.01629,-0.476685 c 0.06884,-1.9593 0.117195,-3.111861 0.929149,-4.064181 1.2739,-1.495753 4.083944,-3.305268 4.203241,-3.382 0.402561,-0.30325 0.742057,-0.648545 0.99484,-1.017491 0.591229,-0.815148 0.852946,-1.456861 0.852946,-2.087537 0,-0.875063 -0.259615,-1.68443 -0.773064,-2.404978 -0.493479,-0.69532 -1.431036,-1.047447 -2.78692,-1.047447 -1.344848,0 -2.265588,0.426757 -2.81635,1.302345 -0.566529,0.90029 -0.852946,1.845779 -0.852946,2.811764 v 0.240183 h -5.807704 l 0.01051,-0.250694 c 0.149778,-3.557538 1.419474,-6.119134 3.772301,-7.613836 1.478335,-0.951795 3.317713,-1.434262 5.464004,-1.434262 2.809518,0 5.181264,0.682707 7.048496,2.0292 1.891931,1.364362 2.851561,3.407752 2.851561,6.073409 0,1.491024 -0.470881,2.89165 -1.400029,4.164564 z"
     id="path2"
     style="fill:#241f20;fill-opacity:1;stroke-width:0.52554989"
     inkscape:connector-curvature="0" /><g
     id="g4"
     transform="translate(0,-28)" /><g
     id="g6"
     transform="translate(0,-28)" /><g
     id="g8"
     transform="translate(0,-28)" /><g
     id="g10"
     transform="translate(0,-28)" /><g
     id="g12"
     transform="translate(0,-28)" /><g
     id="g14"
     transform="translate(0,-28)" /><g
     id="g16"
     transform="translate(0,-28)" /><g
     id="g18"
     transform="translate(0,-28)" /><g
     id="g20"
     transform="translate(0,-28)" /><g
     id="g22"
     transform="translate(0,-28)" /><g
     id="g24"
     transform="translate(0,-28)" /><g
     id="g26"
     transform="translate(0,-28)" /><g
     id="g28"
     transform="translate(0,-28)" /><g
     id="g30"
     transform="translate(0,-28)" /><g
     id="g32"
     transform="translate(0,-28)" /></svg>