<?xml version="1.0" encoding="UTF-8" standalone="no"?>
<svg
   xmlns:dc="http://purl.org/dc/elements/1.1/"
   xmlns:cc="http://creativecommons.org/ns#"
   xmlns:rdf="http://www.w3.org/1999/02/22-rdf-syntax-ns#"
   xmlns:svg="http://www.w3.org/2000/svg"
   xmlns="http://www.w3.org/2000/svg"
   xmlns:sodipodi="http://sodipodi.sourceforge.net/DTD/sodipodi-0.dtd"
   xmlns:inkscape="http://www.inkscape.org/namespaces/inkscape"
   enable-background="new 0 0 64 64"
   height="64px"
   id="Layer_1"
   version="1.1"
   viewBox="0 0 64 64"
   width="64px"
   xml:space="preserve"
   sodipodi:docname="settings.svg"
   inkscape:version="0.92.1 r15371"><metadata
     id="metadata13"><rdf:RDF><cc:Work
         rdf:about=""><dc:format>image/svg+xml</dc:format><dc:type
           rdf:resource="http://purl.org/dc/dcmitype/StillImage" /></cc:Work></rdf:RDF></metadata><defs
     id="defs11" /><sodipodi:namedview
     pagecolor="#ffffff"
     bordercolor="#666666"
     borderopacity="1"
     objecttolerance="10"
     gridtolerance="10"
     guidetolerance="10"
     inkscape:pageopacity="0"
     inkscape:pageshadow="2"
     inkscape:window-width="1920"
     inkscape:window-height="1017"
     id="namedview9"
     showgrid="false"
     inkscape:zoom="7.375"
     inkscape:cx="41.749545"
     inkscape:cy="29.870841"
     inkscape:window-x="-8"
     inkscape:window-y="-8"
     inkscape:window-maximized="1"
     inkscape:current-layer="Layer_1" /><g
     id="g6"
     style="fill:#241f20;fill-opacity:1"><circle
       cx="32"
       cy="32"
       r="4.167"
       id="circle2"
       style="fill:#241f20;fill-opacity:1" /><path
       d="M55.192,27.87l-5.825-1.092c-0.354-1.178-0.818-2.308-1.392-3.371l3.37-4.927c0.312-0.456,0.248-1.142-0.143-1.532   l-4.155-4.156c-0.391-0.391-1.076-0.454-1.532-0.143l-4.928,3.372c-1.094-0.59-2.259-1.063-3.473-1.42l-1.086-5.794   c-0.103-0.543-0.632-0.983-1.185-0.983h-5.877c-0.553,0-1.082,0.44-1.185,0.983l-1.097,5.851c-1.165,0.356-2.282,0.82-3.334,1.392   l-4.866-3.329c-0.456-0.312-1.142-0.248-1.532,0.143l-4.156,4.156c-0.391,0.391-0.454,1.076-0.143,1.532l3.35,4.896   c-0.564,1.052-1.021,2.168-1.371,3.331L8.808,27.87c-0.542,0.103-0.982,0.632-0.982,1.185v5.877c0,0.553,0.44,1.082,0.982,1.185   l5.82,1.091c0.355,1.188,0.823,2.328,1.401,3.399l-3.312,4.842c-0.312,0.456-0.248,1.142,0.143,1.532l4.155,4.156   c0.391,0.391,1.076,0.454,1.532,0.143l4.84-3.313c1.041,0.563,2.146,1.021,3.299,1.375l1.097,5.852   c0.103,0.542,0.632,0.982,1.185,0.982h5.877c0.553,0,1.082-0.44,1.185-0.982l1.086-5.796c1.201-0.354,2.354-0.821,3.438-1.401   l4.902,3.354c0.456,0.312,1.142,0.248,1.532-0.143l4.155-4.154c0.391-0.391,0.454-1.076,0.143-1.532l-3.335-4.874   c0.589-1.084,1.063-2.237,1.423-3.44l5.819-1.091c0.542-0.103,0.982-0.632,0.982-1.185v-5.877   C56.175,28.502,55.734,27.973,55.192,27.87z M32,42.085c-5.568,0-10.083-4.515-10.083-10.086c0-5.567,4.515-10.083,10.083-10.083   c5.57,0,10.086,4.516,10.086,10.083C42.086,37.57,37.569,42.085,32,42.085z"
       id="path4"
       style="fill:#241f20;fill-opacity:1" /></g></svg>